# This file uses centimeters as units for non-parametric coordinates.

mtllib coneRoof.mtl
g default
v -6.232380 2.280016 6.340413
v 11.756302 2.280016 6.340413
v 1.560261 20.592664 -1.452234
v 3.963661 20.592664 -1.452234
v 1.560261 20.592664 -3.855634
v 3.963661 20.592664 -3.855634
v -6.232380 2.280016 -11.648275
v 11.756302 2.280016 -11.648275
v -47.011792 -7.643563 47.119825
v -47.011792 -7.643561 -52.427681
v 52.535714 -7.643561 -52.427687
v 52.535714 -7.643563 47.119825
v -47.166996 -8.945836 47.275029
v -47.166996 -8.945836 -52.582885
v 52.690918 -8.945836 -52.582891
v 52.690918 -8.945836 47.275029
v -4.608829 17.160372 4.716857
v -4.608829 17.160372 -10.024724
v 10.132751 17.160372 -10.024724
v 10.132751 17.160372 4.716857
v 1.554010 18.253957 -1.445983
v 1.554010 18.253957 -3.861885
v 3.969912 18.253957 -3.861885
v 3.969912 18.253957 -1.445983
vt 0.015728 0.979560
vt 0.015728 0.030904
vt 0.027410 0.030985
vt 0.027381 0.978925
vt 0.428868 0.435501
vt 0.428816 0.575781
vt 0.989895 0.030022
vt 0.989895 0.978677
vt 0.974947 0.978484
vt 0.974975 0.030544
vt 0.570145 0.576044
vt 0.570197 0.436199
vt 0.488245 0.517600
vt 0.488239 0.495069
vt 0.495728 0.502624
vt 0.495723 0.510133
vt 0.510787 0.495066
vt 0.510790 0.517596
vt 0.503234 0.510132
vt 0.503250 0.502622
vt 0.583509 0.421419
vt 0.412615 0.421419
vt 0.023734 0.032538
vt 0.972390 0.032538
vt 0.583509 0.592313
vt 0.412615 0.592313
vt 0.023734 0.981194
vt 0.972390 0.981194
vt 0.973807 0.992764
vt 0.025151 0.992764
vt 0.025058 0.014315
vt 0.973713 0.014315
vn 0.000000 -0.964393 -0.264474
vn 0.000000 -0.964393 -0.264474
vn 0.000000 -0.984359 -0.176174
vn 0.000000 -0.984359 -0.176174
vn 0.000000 1.000000 0.000000
vn 0.000000 1.000000 0.000000
vn 0.000000 1.000000 0.000000
vn 0.000000 1.000000 0.000000
vn 0.000000 -0.984359 0.176174
vn 0.000000 -0.984359 0.176174
vn 0.000000 -0.964393 0.264474
vn 0.000000 -0.964393 0.264474
vn 0.000000 -1.000000 0.000000
vn 0.000000 -1.000000 0.000000
vn 0.000000 -1.000000 0.000000
vn 0.000000 -1.000000 0.000000
vn -0.264474 -0.964393 0.000000
vn -0.264474 -0.964393 0.000000
vn -0.176174 -0.984359 0.000000
vn -0.176174 -0.984359 0.000000
vn 0.264474 -0.964393 0.000000
vn 0.264474 -0.964393 0.000000
vn 0.176174 -0.984359 0.000000
vn 0.176174 -0.984359 0.000000
vn -0.563308 0.826247 0.000000
vn -0.563308 0.826247 0.000000
vn -0.502941 0.864321 0.000000
vn -0.502941 0.864321 0.000000
vn -0.000000 0.864321 -0.502941
vn -0.000000 0.864321 -0.502941
vn -0.000000 0.826247 -0.563307
vn -0.000000 0.826247 -0.563307
vn 0.563307 0.826247 0.000000
vn 0.563307 0.826247 0.000000
vn 0.502941 0.864321 0.000000
vn 0.502941 0.864321 0.000000
vn 0.000000 0.826247 0.563307
vn 0.000000 0.826247 0.563307
vn 0.000000 0.864321 0.502941
vn 0.000000 0.864321 0.502941
vn -0.241234 0.970467 0.000000
vn -0.241234 0.970467 0.000000
vn 0.000000 0.970467 -0.241234
vn 0.000000 0.970467 -0.241234
vn 0.241234 0.970467 0.000000
vn 0.241234 0.970467 0.000000
vn 0.000000 0.970467 0.241234
vn 0.000000 0.970467 0.241234
vn -0.999996 0.002673 0.000000
vn -0.999996 0.002673 0.000000
vn 0.000000 0.002673 -0.999996
vn 0.000000 0.002673 -0.999996
vn 0.999996 0.002673 0.000000
vn 0.999996 0.002673 0.000000
vn 0.000000 0.002673 0.999996
vn 0.000000 0.002673 0.999996
s 1
g pCube3
usemtl lambert2SG
f 1/21/1 2/22/2 16/23/3 13/24/4
s off
f 3/15/5 4/20/6 6/19/7 5/16/8
s 2
f 14/28/9 15/27/10 8/26/11 7/25/12
s off
f 7/25/13 8/26/14 2/22/15 1/21/16
s 3
f 2/22/17 8/26/18 15/27/19 16/23/20
s 4
f 7/25/21 1/21/22 13/24/23 14/28/24
f 10/4/25 9/3/26 17/5/27 18/6/28
s 2
f 18/6/29 19/11/30 11/9/31 10/4/32
s 3
f 12/10/33 11/9/34 19/11/35 20/12/36
s 1
f 9/3/37 12/10/38 20/12/39 17/5/40
s 4
f 14/1/24 13/2/23 9/3/26 10/4/25
s 2
f 10/4/32 11/9/31 15/29/10 14/30/9
s 3
f 16/7/20 15/8/19 11/9/34 12/10/33
s 1
f 13/31/4 16/32/3 12/10/38 9/3/37
s 4
f 18/6/28 17/5/27 21/14/41 22/13/42
s 2
f 22/13/43 23/18/44 19/11/30 18/6/29
s 3
f 20/12/36 19/11/35 23/18/45 24/17/46
s 1
f 17/5/40 20/12/39 24/17/47 21/14/48
s 4
f 22/13/42 21/14/41 3/15/49 5/16/50
s 2
f 5/16/51 6/19/52 23/18/44 22/13/43
s 3
f 24/17/46 23/18/45 6/19/53 4/20/54
s 1
f 21/14/48 24/17/47 4/20/55 3/15/56
